				<svg xmlns="http://www.w3.org/2000/svg" xmlns:xlink="http://www.w3.org/1999/xlink" version="1.1" x="0px" y="0px" viewBox="0 0 120 144.4" style="enable-background:new 0 0 455.59 144.4; width: 190px;" xml:space="preserve">
					<style type="text/css">
						.st0 {
							fill: #FFFFFF;
						}

						.st1 {
							fill: #CCCCCC;
						}

						.st2 {
							fill: #A6A6A6;
						}
					</style>
								<g>
									<path class="st1" d="M61.08,92.39l-11.89-6.87l-11.64,6.72l30.35,17.52l0-38.4l-33.26-19.2V87.2l0-0.16v0.16l11.64-6.72l0-13.73      c-0.01-0.49,0.57-0.84,1-0.57c0,0,14.13,8.16,14.13,8.16c0.43,0.25,0.67,0.69,0.67,1.15l0,16.32      C62.09,92.3,61.51,92.65,61.08,92.39z"></path>
									<path class="st2" d="M67.9,109.76l30.35-17.52L86.6,85.52l-11.89,6.87c-0.42,0.25-1.01-0.07-1-0.58c0,0,0-16.32,0-16.32      c0-0.49,0.27-0.92,0.67-1.15l14.13-8.16c0.42-0.26,1.01,0.07,1,0.58c0,0,0,13.73,0,13.73l11.64,6.72V52.16L67.9,71.36      L67.9,109.76z"></path>
									<path class="st0" d="M70.81,34.64v13.44l11.89,6.87c0.43,0.24,0.44,0.91,0,1.15c0,0-14.13,8.16-14.13,8.16      c-0.43,0.25-0.93,0.23-1.33,0L53.1,56.1c-0.43-0.24-0.44-0.91,0-1.15c0,0,11.89-6.86,11.89-6.86l0-13.44L34.64,52.16l33.26,19.2      l33.26-19.2L70.81,34.64z"></path>
								</g>
				</svg>